# xmcd
#
# Track frame offsets: 
#        150
#        17912
#        36826
#        56089
#        80999
#        102270
#        121146
#        142441
#        168432
#        190928
#        213647
#
# Disc length: 2996 seconds
#
# Revision: 1
# Processed by: cddbd v1.5.2PL0 Copyright (c) Steve Scherf et al.
# Submitted via: ExactAudioCopy v0.99pb4
#
DISCID=a80bb20b
DTITLE=Jane Monheit - Surrender
DYEAR=2007
DGENRE=Jazz
TTITLE0=If You Went Away
TTITLE1=Surrender
TTITLE2=Rio de Maio - with Ivan Lins
TTITLE3=Like a Lover
TTITLE4=Só tinha de ser com você
TTITLE5=So Many Stars - with Sergio Mendes
TTITLE6=Moon River
TTITLE7=Overjoyed
TTITLE8=Caminhos cruzados - with Toots Thielemans
TTITLE9=A Time for Love
TTITLE10=Alfie
EXTD=YEAR: 2007
EXTT0=
EXTT1=
EXTT2=
EXTT3=
EXTT4=
EXTT5=
EXTT6=
EXTT7=
EXTT8=
EXTT9=
EXTT10=
PLAYORDER=
